<?xml version="1.0" standalone="no"?>
<!DOCTYPE svg PUBLIC "-//W3C//DTD SVG 20010904//EN"
 "http://www.w3.org/TR/2001/REC-SVG-20010904/DTD/svg10.dtd">
<svg version="1.0" xmlns="http://www.w3.org/2000/svg"
 width="1024.000000pt" height="1024.000000pt" viewBox="0 0 1024.000000 1024.000000"
 preserveAspectRatio="xMidYMid meet">
<metadata>
Created by potrace 1.14, written by Peter Selinger 2001-2017
</metadata>
<g transform="translate(0.000000,1024.000000) scale(0.100000,-0.100000)"
fill="#000000" stroke="none">
<path d="M3198 9515 c-2 -1 -21 -5 -43 -9 -228 -33 -451 -173 -582 -365 -21
-31 -41 -57 -45 -59 -5 -2 -8 -8 -8 -14 0 -6 -10 -27 -22 -47 -13 -20 -23 -38
-23 -41 -1 -3 -8 -21 -16 -40 -68 -150 -118 -335 -135 -495 -14 -130 -9 -369
10 -485 16 -103 27 -160 35 -188 5 -18 10 -36 11 -40 8 -55 58 -215 102 -327
40 -101 139 -297 164 -326 8 -8 14 -20 14 -25 0 -10 1 -10 119 -160 72 -91
254 -273 284 -283 6 -2 18 -11 26 -19 59 -59 295 -177 392 -197 9 -2 32 -7 50
-13 58 -15 248 -14 325 2 370 79 603 311 739 736 15 47 29 99 32 115 2 17 9
47 14 67 31 118 34 504 5 668 -41 240 -98 425 -192 625 -155 330 -435 644
-709 793 -69 38 -191 90 -224 97 -13 2 -30 6 -39 9 -44 13 -85 18 -179 21 -56
2 -103 2 -105 0z"/>
<path d="M6831 9504 c-240 -50 -443 -174 -678 -414 -61 -62 -181 -224 -235
-315 -89 -151 -212 -447 -234 -565 -3 -14 -14 -59 -24 -100 -11 -42 -22 -100
-26 -130 -3 -30 -8 -58 -10 -61 -15 -25 -22 -352 -10 -444 4 -27 8 -64 11 -82
12 -96 71 -326 95 -373 5 -8 18 -37 31 -65 55 -126 53 -121 126 -220 71 -95
87 -111 168 -176 109 -88 250 -151 402 -180 74 -14 254 -6 333 14 402 105 747
417 967 877 44 92 99 232 108 279 2 9 8 28 14 44 10 26 14 39 26 105 3 15 11
45 17 67 5 22 12 51 14 65 2 14 6 34 9 45 41 188 40 511 -2 710 -20 98 -20 97
-31 125 -5 14 -10 27 -10 30 0 12 -32 112 -47 147 -129 305 -328 509 -567 583
-155 47 -320 60 -447 34z"/>
<path d="M978 7004 c-2 -1 -25 -5 -53 -8 -121 -16 -278 -74 -372 -137 -69 -46
-184 -163 -237 -241 -45 -66 -97 -169 -121 -238 -1 -3 -7 -18 -14 -35 -12 -29
-44 -148 -56 -210 -24 -127 -14 -376 22 -520 8 -33 17 -70 19 -81 18 -98 150
-385 216 -469 152 -195 271 -307 428 -401 110 -67 281 -134 380 -149 19 -3 58
-9 86 -14 58 -9 208 -7 269 3 228 39 436 170 564 356 265 385 284 894 54 1378
-26 55 -116 204 -138 229 -5 6 -26 31 -45 55 -46 56 -113 123 -175 173 -28 22
-56 45 -62 52 -24 22 -149 102 -217 138 -103 55 -208 91 -321 110 -38 7 -222
14 -227 9z"/>
<path d="M9218 7005 c-2 -2 -34 -6 -73 -9 -420 -37 -837 -346 -1031 -764 -106
-228 -156 -438 -158 -662 -1 -137 6 -186 49 -370 13 -52 123 -286 147 -311 7
-8 19 -25 26 -39 7 -14 36 -50 65 -80 149 -156 288 -228 521 -270 82 -15 283
-8 367 14 191 47 399 164 563 315 36 34 138 150 174 199 9 12 23 29 30 37 6 7
12 16 12 20 0 4 13 25 28 48 85 125 189 405 208 560 3 23 8 49 11 57 9 27 12
284 3 330 -4 25 -11 63 -14 85 -20 129 -109 358 -161 415 -8 9 -12 20 -8 23 3
4 1 7 -5 7 -6 0 -13 8 -16 18 -3 9 -18 31 -32 47 -14 17 -36 41 -48 55 -23 27
-111 101 -163 137 -90 63 -262 120 -388 129 -38 3 -78 7 -87 8 -9 2 -18 2 -20
1z"/>
<path d="M5018 5745 c-2 -2 -34 -6 -73 -9 -38 -4 -77 -9 -85 -11 -8 -2 -30 -7
-48 -10 -164 -28 -438 -119 -611 -203 -42 -20 -79 -41 -83 -47 -4 -5 -8 -7 -8
-3 0 16 -420 -233 -495 -294 -5 -5 -73 -54 -150 -110 -77 -57 -145 -107 -151
-113 -6 -5 -22 -17 -35 -25 -12 -8 -41 -31 -63 -50 -23 -20 -86 -74 -141 -120
-152 -129 -286 -257 -456 -436 -71 -76 -245 -277 -284 -329 -16 -22 -32 -42
-35 -45 -3 -3 -39 -50 -80 -105 -41 -55 -77 -102 -80 -105 -3 -3 -23 -32 -45
-65 -22 -33 -46 -66 -52 -73 -7 -7 -13 -17 -13 -21 0 -4 -9 -19 -20 -32 -12
-12 -30 -39 -42 -59 -12 -19 -45 -73 -74 -120 -156 -251 -330 -618 -399 -840
-9 -30 -19 -62 -22 -70 -3 -8 -7 -19 -9 -25 -6 -23 -36 -151 -40 -168 -2 -10
-5 -26 -8 -35 -3 -9 -8 -37 -11 -62 -3 -25 -7 -55 -10 -68 -20 -105 -23 -346
-5 -455 14 -85 48 -204 66 -232 7 -11 13 -23 14 -27 2 -20 29 -70 72 -133 139
-208 375 -368 658 -444 71 -19 181 -40 315 -60 75 -11 429 -12 510 -1 33 5 83
11 110 15 67 8 97 13 180 30 39 8 81 16 95 18 14 3 43 10 65 15 22 6 51 13 65
16 25 4 183 45 254 66 21 7 46 13 55 16 9 2 36 10 61 18 123 41 473 147 545
166 60 16 291 69 320 74 17 3 54 10 82 15 179 34 387 33 588 -3 44 -8 96 -17
115 -21 19 -3 78 -17 131 -30 53 -13 107 -26 120 -29 34 -7 270 -75 294 -85
11 -4 36 -13 55 -19 19 -6 82 -25 140 -43 58 -18 108 -34 113 -35 4 -1 8 -2
10 -4 4 -3 24 -8 227 -60 199 -51 219 -56 280 -66 19 -3 38 -8 41 -10 4 -2 31
-6 60 -10 30 -3 57 -8 61 -10 3 -2 33 -7 65 -10 32 -3 78 -10 103 -14 51 -9
475 -6 535 4 22 4 52 9 68 11 15 3 42 7 60 11 133 22 358 95 419 136 14 10 30
18 35 18 21 0 191 131 248 190 89 93 95 100 95 105 0 3 15 27 33 53 68 97 126
264 143 412 10 94 3 387 -11 410 -2 3 -6 29 -9 57 -3 28 -9 69 -15 90 -6 21
-12 49 -15 63 -11 57 -17 78 -47 174 -63 208 -161 435 -289 671 -69 129 -206
348 -318 510 -57 82 -107 152 -111 155 -3 3 -40 50 -81 105 -41 55 -77 102
-80 105 -3 3 -60 68 -127 145 -188 217 -401 429 -618 615 -60 52 -115 99 -121
105 -6 5 -23 19 -38 30 -16 11 -62 47 -105 80 -163 127 -534 375 -561 375 -5
0 -10 5 -10 10 0 6 -5 10 -11 10 -6 0 -38 16 -72 36 -34 20 -66 37 -72 39 -5
1 -50 21 -100 45 -96 45 -98 46 -190 83 -58 24 -212 75 -248 82 -9 2 -20 6
-25 8 -4 3 -24 8 -44 11 -21 3 -57 10 -80 15 -42 9 -84 16 -163 27 -40 6 -312
13 -317 9z"/>
</g>
</svg>
